HIERARCHY
ROOT Hips
{
	OFFSET 0.00000 0.00000 0.00000
	CHANNELS 6 Xposition Yposition Zposition Yrotation Zrotation Xrotation 
	JOINT Lumbar
	{
		OFFSET 0 0 0
		CHANNELS 3 Zrotation Xrotation Yrotation
		JOINT Neck
		{
			OFFSET 0.00 0.2701 0.00
			CHANNELS 3 Zrotation Xrotation Yrotation
			End Site
			{
				OFFSET 0.00 0.1379 0.00
			}
		}
		JOINT RightShoulder
		{
			OFFSET 0.0119 0.2289 0.1181
			CHANNELS 3 Zrotation Xrotation Yrotation
			JOINT RightElbow
			{
				OFFSET 0.00 -0.1475 0.00
				CHANNELS 2 Zrotation Yrotation
				JOINT RightWrist
				{
					OFFSET 0.00 -0.1605 0.00
					CHANNELS 2 Zrotation Xrotation
					End Site
					{
						OFFSET 0.0040 -0.1068 0.0006
					}
				}
			}
		}
		JOINT LeftShoulder
		{
			OFFSET 0.0119 0.2289 -0.1181
			CHANNELS 3 Zrotation Xrotation Yrotation
			JOINT LeftElbow
			{
				OFFSET 0.00 -0.1475 0.00
				CHANNELS 2 Zrotation Yrotation
				JOINT LeftWrist
				{
					OFFSET 0.00 -0.1605 0.00
					CHANNELS 2 Zrotation Xrotation
					End Site
					{
						OFFSET 0.0040 -0.1068 -0.0006
					}
				}
			}
		}
	}
	JOINT RightHip
	{
		OFFSET 0.0316 -0.0424 0.0458
		CHANNELS 3 Zrotation Xrotation Yrotation
		JOINT RightKnee
		{
			OFFSET 0.00 -0.2438 0.00
			CHANNELS 1 Zrotation
			JOINT RightAnkle
			{
				OFFSET 0.00 -0.2449 0.00
				CHANNELS 3 Zrotation Xrotation Yrotation
				End Site
				{
					OFFSET 0.1237 -0.0542 0.0051
				}
			}
		}
	}
	JOINT LeftHip
	{
		OFFSET 0.0316 -0.0424 -0.0458
		CHANNELS 3 Zrotation Xrotation Yrotation
		JOINT LeftKnee
		{
			OFFSET 0.00 -0.2438 0.00
			CHANNELS 1 Zrotation
			JOINT LeftAnkle
			{
				OFFSET 0.00 -0.2449 0.00
				CHANNELS 3 Zrotation Xrotation Yrotation
				End Site
				{
					OFFSET 0.1237 -0.0542 -0.0051
				}
			}
		}
	}
}
MOTION
Frames: 13
Frame Time: 0.02
0.52879 -0.01039 -0.20047 482.21185 -32.06108 -5.95892 37.12179 4.57264 -5.82084 -15.17567 1.86315 -0.83078 -28.82065 -18.40712 5.94707 21.70185 104.61361 15.58345 2.09206 -34.21225 48.21564 -28.32101 109.74708 -91.07316 17.51573 1.86821 55.31635 0.04126 -9.37525 -56.30216 -8.42488 -4.54568 -3.14577 42.4421 8.04264 3.65419 -34.73347 -6.42639 1.74485 1.54992
0.52503 -0.01085 -0.20782 483.09709 -32.29262 -5.9556 37.26115 4.60911 -6.28127 -15.32222 1.53383 -0.83078 -30.38688 -18.46752 6.12852 21.83172 104.40427 15.81891 2.03607 -34.81759 48.27184 -27.90105 109.79877 -90.8338 17.5135 1.91205 56.40217 0.22169 -8.83662 -52.82708 -8.3032 -4.45064 -3.08337 41.64882 8.4414 4.07647 -34.46407 -6.42789 1.62671 1.48323
0.52136 -0.01155 -0.21514 483.94139 -32.5657 -5.90772 37.4088 4.61778 -6.58038 -15.39534 1.19783 -0.83078 -31.68755 -18.45261 6.39581 21.84515 104.42903 16.08096 1.98342 -35.27648 48.35247 -27.62054 109.83437 -90.64805 17.58082 1.94649 57.39623 0.46731 -8.25629 -49.09213 -8.23659 -4.32868 -3.008 40.92764 9.00846 5.00368 -34.24941 -6.44714 1.46236 1.38881
0.51764 -0.01215 -0.2225 484.80303 -32.81982 -5.87959 37.55201 4.63891 -6.94401 -15.49809 0.87327 -0.83078 -33.08173 -18.4695 6.62739 21.90904 104.33581 16.32349 1.92779 -35.79814 48.41409 -27.27347 109.87657 -90.45067 17.63181 1.96862 58.42761 0.67606 -7.73082 -45.511 -8.14193 -4.21458 -2.93606 40.17563 9.48526 5.64311 -34.01212 -6.45599 1.32552 1.31055
0.51395 -0.0127 -0.22976 485.66781 -33.0774 -5.85324 37.69956 4.66036 -7.34071 -15.61505 0.51113 -0.83078 -34.59334 -18.49618 6.85858 21.99242 104.25678 16.59755 1.88069 -36.33741 48.50828 -26.93591 109.92213 -90.19872 17.62075 2.05844 59.47765 0.91372 -7.05939 -41.7423 -8.05864 -4.11627 -2.87293 39.41869 10.01763 6.5168 -33.76306 -6.474 1.16289 1.21826
0.51022 -0.01342 -0.23721 486.51791 -33.3356 -5.81199 37.83929 4.67427 -7.63135 -15.68555 0.22701 -0.83078 -35.79314 -18.48495 7.10568 22.00413 104.21568 16.81106 1.81691 -36.80308 48.54175 -26.61503 109.95671 -90.07246 17.75152 2.00812 60.46341 1.10774 -6.67593 -38.32344 -7.96606 -3.98054 -2.78949 38.68721 10.4772 7.03249 -33.55303 -6.47814 1.0416 1.14785
0.50642 -0.01454 -0.24509 487.32783 -33.59549 -5.74975 37.95743 4.67974 -7.67306 -15.64592 0.15393 -0.83078 -36.2336 -18.38484 7.37635 21.84511 104.24038 16.86473 1.69152 -37.11948 48.3889 -26.28331 109.96511 -90.29317 18.29431 1.54553 61.33729 1.15956 -7.14876 -35.85242 -7.82476 -3.73775 -2.64681 38.0183 10.66895 6.3635 -33.43192 -6.43067 1.05547 1.14963
0.50257 -0.01582 -0.25315 488.12607 -33.85219 -5.67274 38.0668 4.67789 -7.61303 -15.56213 0.16115 -0.83078 -36.36175 -18.24959 7.65778 21.61684 104.29701 16.85414 1.55143 -37.36328 48.17623 -25.96819 109.96292 -90.63666 18.97085 0.947 62.14168 1.16644 -7.90424 -33.76264 -7.67403 -3.46042 -2.48547 37.37126 10.78564 5.32751 -33.35096 -6.37029 1.11082 1.17353
0.49874 -0.01703 -0.26118 488.9366 -34.10364 -5.59625 38.17872 4.67557 -7.59777 -15.49884 0.13553 -0.83078 -36.61013 -18.13233 7.9323 21.41988 104.33213 16.86404 1.42725 -37.62872 47.99951 -25.66048 109.96541 -90.91534 19.56147 0.42923 62.95075 1.1978 -8.49547 -31.55506 -7.53407 -3.20591 -2.33697 36.70617 10.95458 4.51254 -33.25346 -6.32167 1.14039 1.18381
0.49495 -0.01825 -0.26902 489.71748 -34.38562 -5.54326 38.29723 4.68736 -7.58452 -15.43169 0.09339 -0.83078 -36.94473 -18.00439 8.21967 21.21995 104.40405 16.91159 1.2644 -37.93785 47.78753 -25.29393 109.96794 -91.23274 20.25963 -0.16752 63.8721 1.2143 -9.23209 -29.10047 -7.36889 -2.92028 -2.16958 36.07405 11.05616 3.50101 -33.14435 -6.24877 1.19669 1.20765
0.49105 -0.01947 -0.27729 490.55625 -34.60176 -5.43974 38.39956 4.66954 -7.54313 -15.36237 0.10588 -0.83078 -37.02415 -17.89072 8.48028 21.01096 104.40433 16.86516 1.17844 -38.13954 47.63334 -25.05274 109.96803 -91.49939 20.76588 -0.6338 64.54181 1.25021 -9.73897 -27.2585 -7.25296 -2.69173 -2.0373 35.38233 11.27381 2.78647 -33.07615 -6.22318 1.20893 1.20952
0.48686 -0.02067 -0.28668 491.57209 -34.64433 -5.18935 38.461 4.56219 -7.46578 -15.30401 0.24058 -0.83078 -36.51713 -17.83083 8.67592 20.79668 104.19658 16.57425 1.30886 -38.07156 47.66378 -25.14812 109.96448 -91.58508 20.69891 -0.68927 64.55383 1.35082 -9.49692 -26.98083 -7.27767 -2.62838 -2.00627 34.48187 11.86716 3.14477 -33.04637 -6.33215 1.07921 1.13959
0.48256 -0.02185 -0.2965 492.64414 -34.61902 -4.89099 38.50579 4.42732 -7.36111 -15.24411 0.42905 -0.83078 -35.75693 -17.78583 8.84206 20.57597 103.91514 16.1909 1.51686 -37.89648 47.75295 -25.36985 109.95891 -91.61824 20.43593 -0.61113 64.31074 1.47238 -9.02322 -27.3128 -7.3514 -2.62391 -2.01128 33.52965 12.57316 3.78507 -33.0703 -6.48969 0.90552 1.04783
